<?xml version="1.0" encoding="UTF-8" standalone="no"?>
<!DOCTYPE svg PUBLIC "-//W3C//DTD SVG 1.1//EN" "http://www.w3.org/Graphics/SVG/1.1/DTD/svg11.dtd">
<svg width="100%" height="100%" viewBox="0 0 1250 1159" version="1.1" xmlns="http://www.w3.org/2000/svg" xmlns:xlink="http://www.w3.org/1999/xlink" xml:space="preserve" xmlns:serif="http://www.serif.com/" style="fill-rule:evenodd;clip-rule:evenodd;stroke-linejoin:round;stroke-miterlimit:2;">
    <g transform="matrix(4.16667,0,0,4.16667,0,0)">
        <path d="M284.56,92.698C275.806,84.863 264.425,80.721 251.64,80.721C249.477,80.721 247.257,80.845 245.043,81.093C226.86,83.111 211.77,84.096 211.62,84.106L199.22,84.906L199.22,56.892L184.238,61.372C178.756,63.01 172.77,64.245 166.412,65.047L166.412,47.643L180.945,33.113L148.482,0.651L116.017,33.113L130.55,47.643L130.55,64.83C124.894,64.04 119.6,62.91 114.779,61.465L99.787,56.967L99.787,84.89L87.613,84.104C87.466,84.095 72.352,83.104 54.214,81.092C38.909,79.4 24.935,83.536 14.693,92.698C5.217,101.182 0,113.153 0,126.409C0,136.692 3.932,146.498 11.075,154.021C20.883,164.353 36.45,170.482 57.373,172.245L61.857,172.559L61.951,212.33L149.562,278L237.3,212.332L237.41,172.559L241.914,172.242C262.807,170.482 278.374,164.353 288.182,154.022C295.324,146.495 299.257,136.689 299.257,126.409C299.257,113.153 294.037,101.18 284.56,92.698Z" style="fill:white;fill-rule:nonzero;"/>
        <path d="M162.433,162.943L162.433,163.112L162.445,163.109L162.309,165.611L160.335,205.663L187.571,186.79L187.571,99.378L154.374,103.518L163.881,115.959L162.446,137.145C154.047,139.604 145.06,139.412 136.755,136.594L136.755,136.067L135.372,116.824L145.544,103.518L111.614,99.378L111.614,186.79L138.849,205.663L136.755,163.109L136.755,162.579C141.275,163.513 145.868,164.008 150.464,164.008C154.473,164.008 158.478,163.649 162.433,162.943Z" style="fill:rgb(194,31,51);fill-rule:nonzero;"/>
        <path d="M187.574,85.832L187.574,72.769C164.329,79.72 134.406,79.749 111.437,72.858L111.437,85.918C123.094,88.991 136.14,90.546 149.238,90.546C162.457,90.546 175.699,88.968 187.574,85.832Z" style="fill:rgb(194,31,51);fill-rule:nonzero;"/>
        <path d="M142.197,71.806L154.765,71.806L154.765,43.057L164.474,33.349L148.483,17.358L132.491,33.349L142.197,43.056L142.197,71.806Z" style="fill:rgb(194,31,51);fill-rule:nonzero;"/>
        <path d="M276.793,101.613C269.042,94.676 258.216,91.583 246.328,92.905C227.779,94.964 212.523,95.955 212.372,95.967L200.621,96.724L200.537,194.269L159.081,225.65L157.321,258.414L225.663,206.761L225.74,120.16C231.923,119.639 240.087,118.89 249.104,117.888C249.957,117.792 250.793,117.746 251.602,117.746C257.338,117.746 262.319,120.406 262.571,126.725C262.772,131.783 259.09,136.509 253.971,137.014L238.32,138.559L238.341,161.038L240.333,160.925C282.368,157.582 287.611,136.535 287.611,126.646C287.611,116.747 283.769,107.856 276.793,101.613Z" style="fill:rgb(194,31,51);fill-rule:nonzero;"/>
        <path d="M22.463,101.613C30.216,94.676 41.039,91.583 52.93,92.905C71.478,94.964 86.734,95.955 86.884,95.967L98.636,96.724L98.723,194.269L140.175,225.65L141.94,258.414L73.594,206.761L73.517,120.16C73.517,120.16 59.169,118.89 50.153,117.888C49.299,117.792 48.462,117.746 47.654,117.746C41.919,117.746 36.938,120.406 36.686,126.725C36.485,131.783 40.166,136.509 45.285,137.014L60.937,138.559L60.916,161.107L58.924,160.925C16.893,157.582 11.647,136.535 11.647,126.646C11.647,116.747 15.488,107.856 22.463,101.613Z" style="fill:rgb(194,31,51);fill-rule:nonzero;"/>
    </g>
</svg>
